HIERARCHY
ROOT Hips
{
	OFFSET 0.000000 0.000000 0.000000
	CHANNELS 6 Xposition Yposition Zposition Zrotation Yrotation Xrotation 
	JOINT LeftUpLeg_virtual
	{
		OFFSET 0.000000 0.000000 0.000000
		CHANNELS 3 Zrotation Yrotation Xrotation
		JOINT LeftUpLeg
		{
			OFFSET 8.479694 -4.795517 -0.379053
			CHANNELS 3 Zrotation Yrotation Xrotation
			JOINT LeftLeg
			{
				OFFSET 0.485052 -32.551468 0.112863
				CHANNELS 3 Zrotation Yrotation Xrotation
				JOINT LeftFoot
				{
					OFFSET 0.438033 -32.635670 -3.012641
					CHANNELS 3 Zrotation Yrotation Xrotation
					JOINT LeftToeBase
					{
						OFFSET 0.970169 -13.225353 11.864223
						CHANNELS 3 Zrotation Yrotation Xrotation
						End Site
						{
							OFFSET 0.000000 0.000000 0.000000
						}
					}
				}
			}
		}
	}
	JOINT RightUpLeg_virtual
	{
		OFFSET 0.000000 0.000000 0.000000
		CHANNELS 3 Zrotation Yrotation Xrotation
		JOINT RightUpLeg
		{
			OFFSET -8.479694 -4.795517 -0.379053
			CHANNELS 3 Zrotation Yrotation Xrotation
			JOINT RightLeg
			{
				OFFSET -0.484100 -32.551483 0.112903
				CHANNELS 3 Zrotation Yrotation Xrotation
				JOINT RightFoot
				{
					OFFSET -0.438985 -32.635651 -3.012681
					CHANNELS 3 Zrotation Yrotation Xrotation
					JOINT RightToeBase
					{
						OFFSET -0.970169 -13.225354 11.864223
						CHANNELS 3 Zrotation Yrotation Xrotation
						End Site
						{
							OFFSET 0.000000 0.000000 0.000000
						}
					}
				}
			}
		}
	}
	JOINT Spine_virtual
	{
		OFFSET 0.000000 0.000000 0.000000
		CHANNELS 3 Zrotation Yrotation Xrotation
		JOINT Spine
		{
			OFFSET 0.000000 7.722015 1.166203
			CHANNELS 3 Zrotation Yrotation Xrotation
			JOINT Spine1
			{
				OFFSET 0.000000 12.024086 0.248766
				CHANNELS 3 Zrotation Yrotation Xrotation
				JOINT Spine2
				{
					OFFSET -0.000000 11.503036 -0.491240
					CHANNELS 3 Zrotation Yrotation Xrotation
					JOINT Neck_virtual
					{
						OFFSET 0.000000 0.000000 0.000000
						CHANNELS 3 Zrotation Yrotation Xrotation
						JOINT Neck
						{
							OFFSET 0.000000 18.430687 -3.123054
							CHANNELS 3 Zrotation Yrotation Xrotation
							JOINT Head
							{
								OFFSET -0.000000 9.051071 1.034021
								CHANNELS 3 Zrotation Yrotation Xrotation
								End Site
								{
									OFFSET 0.000000 0.000000 0.000000
								}
							}
						}
					}
					JOINT LeftShoulder_virtual
					{
						OFFSET 0.000000 0.000000 0.000000
						CHANNELS 3 Zrotation Yrotation Xrotation
						JOINT LeftShoulder
						{
							OFFSET 6.197824 13.665230 -4.064723
							CHANNELS 3 Zrotation Yrotation Xrotation
							JOINT LeftArm
							{
								OFFSET 7.778132 -0.187073 -1.709282
								CHANNELS 3 Zrotation Yrotation Xrotation
								JOINT LeftForeArm
								{
									OFFSET 21.954697 0.000000 -2.041093
									CHANNELS 3 Zrotation Yrotation Xrotation
									JOINT LeftHand
									{
										OFFSET 22.992908 0.000000 -0.870901
										CHANNELS 3 Zrotation Yrotation Xrotation
										End Site
										{
											OFFSET 0.000000 0.000000 0.000000
										}
									}
								}
							}
						}
					}
					JOINT RightShoulder_virtual
					{
						OFFSET 0.000000 0.000000 0.000000
						CHANNELS 3 Zrotation Yrotation Xrotation
						JOINT RightShoulder
						{
							OFFSET -6.197824 13.665230 -4.064723
							CHANNELS 3 Zrotation Yrotation Xrotation
							JOINT RightArm
							{
								OFFSET -7.778132 -0.187073 -1.709282
								CHANNELS 3 Zrotation Yrotation Xrotation
								JOINT RightForeArm
								{
									OFFSET -21.954697 0.000000 -2.041093
									CHANNELS 3 Zrotation Yrotation Xrotation
									JOINT RightHand
									{
										OFFSET -22.992908 0.000000 -0.870901
										CHANNELS 3 Zrotation Yrotation Xrotation
										End Site
										{
											OFFSET 0.000000 0.000000 0.000000
										}
									}
								}
							}
						}
					}
				}
			}
		}
	}
}
MOTION
Frames: 10
Frame Time: 0.033333
-5.916656 81.231491 17.321507 -179.258233 -8.400557 179.809429 -1.904804 2.130532 15.581309 1.458755 1.767533 -23.902174 1.369038 6.024530 27.179964 4.177708 -5.366246 -10.214885 0.000000 0.000000 0.000000 3.365361 -1.904919 16.168745 -7.390276 4.459979 -25.429911 0.179737 6.269171 31.219149 11.407800 2.621384 -13.677587 0.000000 0.000000 0.000000 4.737892 1.460385 4.894727 0.713736 -2.354945 -6.013976 0.044980 -2.164141 7.228066 -0.124028 -0.317283 -0.014271 -0.555852 -0.492029 7.696920 -1.583876 2.359466 -4.129942 0.000000 0.000000 0.000000 1.151800 0.019673 5.237283 -12.369691 -3.167801 2.450804 -59.782569 -2.061790 -13.152311 6.646983 -14.635366 4.652291 0.000000 0.000000 0.000000 -3.244946 1.483891 4.201796 28.356294 -1.881653 7.793127 46.423426 2.158786 0.328043 -2.822926 22.029826 -2.735289 0.000000 0.000000 0.000000 
-5.930626 81.220917 17.433033 -178.914947 -8.966962 179.848880 -2.078112 2.823862 15.711597 1.057976 2.221002 -23.885037 1.148678 6.288696 27.210996 4.041105 -5.472436 -10.036364 0.000000 0.000000 0.000000 3.583673 -1.855725 16.226117 -7.313511 4.742365 -25.570876 0.129314 6.255841 31.409212 11.326738 2.443649 -13.869681 0.000000 0.000000 0.000000 4.978535 1.498953 4.748260 0.823734 -2.495550 -6.138113 0.024811 -2.298727 7.235664 -0.097070 -0.388683 0.053900 -0.578407 -0.648986 7.654543 -1.345776 2.133384 -4.109622 0.000000 0.000000 0.000000 1.102742 -0.037730 5.236683 -12.405597 -3.478132 2.438131 -59.515270 -3.588371 -12.562880 6.455018 -15.457068 4.935879 0.000000 0.000000 0.000000 -3.332505 1.377437 4.183436 28.369198 -1.566359 7.795215 46.256514 2.965974 1.217285 -2.900441 22.513051 -2.893809 0.000000 0.000000 0.000000 
-5.922740 81.174026 17.578039 -178.925384 -9.077920 179.830097 -2.052135 2.765289 15.743207 1.041200 2.295297 -24.049142 1.126365 6.267824 27.358862 3.924787 -5.526847 -10.152113 0.000000 0.000000 0.000000 3.530851 -2.144475 16.290884 -7.407426 5.348900 -25.867665 0.121973 6.294929 31.576494 11.141895 2.292410 -13.981336 0.000000 0.000000 0.000000 4.999428 1.434886 4.717044 0.786681 -2.496908 -6.142813 -0.058591 -2.333809 7.186898 -0.148960 -0.407230 -0.010521 -0.649068 -0.510794 7.691056 -1.463272 2.376986 -4.221972 0.000000 0.000000 0.000000 0.977993 -0.092003 5.328098 -12.711492 -4.029758 2.467889 -58.674542 -5.950685 -11.100900 6.368617 -16.648084 4.725419 0.000000 0.000000 0.000000 -3.375851 1.360749 4.303234 28.610979 -1.058342 7.871532 46.126054 4.548357 2.352545 -2.673182 23.127106 -2.731234 0.000000 0.000000 0.000000 
-5.882856 81.124458 17.736031 -178.930329 -9.046804 179.836709 -2.057520 2.668097 15.692436 1.061241 2.366306 -24.193831 1.126940 6.222638 27.587124 3.793948 -5.532427 -10.297829 0.000000 0.000000 0.000000 3.501810 -1.886216 16.313466 -7.281477 5.223966 -26.020746 0.132942 6.348374 31.711588 11.012368 2.278329 -14.140887 0.000000 0.000000 0.000000 4.972645 1.524247 4.611005 0.708166 -2.469280 -6.167216 -0.112523 -2.327763 7.282414 -0.145198 -0.444944 0.014340 -0.707473 -0.589153 7.685554 -1.339475 2.353111 -4.032274 0.000000 0.000000 0.000000 0.908585 -0.151201 5.210998 -13.083208 -4.671184 2.523528 -57.623485 -8.883774 -9.384571 5.857801 -18.240765 5.061718 0.000000 0.000000 0.000000 -3.452287 1.213730 4.215051 29.040523 -0.511285 7.883133 45.638737 6.484326 3.713867 -2.405272 23.604925 -2.524579 0.000000 0.000000 0.000000 
-5.823824 81.086380 17.885138 -178.925165 -9.134629 179.819989 -2.078604 2.612008 15.532357 1.128347 2.399489 -24.237512 1.152905 6.144860 27.862939 3.633980 -5.518952 -10.420839 0.000000 0.000000 0.000000 3.426017 -1.981692 16.258164 -7.179085 5.195949 -26.159124 0.206057 6.398016 31.876493 10.936644 2.349855 -14.185725 0.000000 0.000000 0.000000 4.994984 1.533376 4.491678 0.591211 -2.476346 -6.160101 -0.163536 -2.358299 7.323131 -0.152419 -0.438992 -0.013760 -0.699210 -0.532388 7.743905 -1.262448 2.441953 -3.901197 0.000000 0.000000 0.000000 0.814361 -0.285834 5.172629 -13.568047 -5.259725 2.580401 -56.506391 -11.872214 -7.760428 5.505518 -20.192151 4.804224 0.000000 0.000000 0.000000 -3.509828 1.232320 4.138827 29.377566 -0.053747 7.894999 45.048683 8.485607 4.905647 -2.177388 24.510325 -2.302394 0.000000 0.000000 0.000000 
-5.763089 81.074097 18.011610 -178.919756 -9.370991 179.752452 -2.104114 2.745465 15.295903 1.216783 2.380308 -24.173255 1.193405 6.040105 28.092715 3.433542 -5.506510 -10.476713 0.000000 0.000000 0.000000 3.377777 -1.983033 16.135053 -7.044978 4.951059 -26.112399 0.258602 6.336031 32.014015 10.870247 2.435400 -14.175918 0.000000 0.000000 0.000000 4.962986 1.609690 4.387197 0.474655 -2.575818 -6.090106 -0.150978 -2.431080 7.264710 -0.130689 -0.416503 0.068176 -0.760901 -0.669069 7.799291 -1.136695 2.554111 -3.815669 0.000000 0.000000 0.000000 0.798895 -0.259821 5.187246 -13.857686 -5.648238 2.564323 -55.314762 -14.859642 -6.549602 4.778984 -22.436608 4.997823 0.000000 0.000000 0.000000 -3.502596 1.226495 4.102691 29.749162 0.545554 7.927943 44.224153 10.530310 5.811568 -2.089298 25.808698 -2.252805 0.000000 0.000000 0.000000 
-5.700782 81.093727 18.122364 -178.927857 -9.782938 179.770879 -2.134962 2.905583 15.022229 1.291976 2.305205 -24.138063 1.244024 5.943693 28.229466 3.213632 -5.486008 -10.435113 0.000000 0.000000 0.000000 3.395632 -1.748004 15.917426 -6.889979 4.370263 -25.910488 0.274166 6.165976 32.070976 10.815566 2.489108 -14.145070 0.000000 0.000000 0.000000 4.907306 1.757776 4.239710 0.369214 -2.644238 -6.175164 -0.135071 -2.526677 7.339397 -0.121000 -0.439364 0.011375 -0.745663 -0.845956 7.759149 -1.054997 2.688397 -3.744180 0.000000 0.000000 0.000000 0.832305 -0.329390 5.152057 -14.025898 -5.999791 2.619527 -54.202448 -17.528960 -5.621098 4.182418 -24.701944 4.955146 0.000000 0.000000 0.000000 -3.539826 1.171772 4.038959 29.942357 1.162824 8.014056 43.376134 12.509360 6.646828 -1.865662 27.028681 -2.114036 0.000000 0.000000 0.000000 
-5.688128 81.145287 18.224415 -178.931190 -10.421636 179.715131 -2.148962 3.083728 14.834811 1.313547 2.184990 -24.163662 1.313994 5.862669 28.383179 2.980258 -5.461514 -10.281663 0.000000 0.000000 0.000000 3.458297 -1.785643 15.752301 -6.825826 3.886697 -25.692498 0.269792 5.996659 32.103682 10.753251 2.491789 -13.995804 0.000000 0.000000 0.000000 4.867072 1.872334 4.105615 0.277244 -2.622594 -6.214028 -0.135436 -2.536924 7.280161 -0.133391 -0.420899 0.039688 -0.697294 -0.764220 7.797909 -0.996378 2.769062 -3.532406 0.000000 0.000000 0.000000 0.773140 -0.287139 5.210101 -13.919611 -6.462113 2.502275 -53.160219 -20.154633 -4.873316 3.706736 -26.488640 4.804110 0.000000 0.000000 0.000000 -3.486718 1.113125 3.984401 30.025201 1.753303 8.090833 42.603749 14.299910 7.390072 -1.763727 28.280111 -2.050833 0.000000 0.000000 0.000000 
-5.691688 81.202194 18.290234 -178.953156 -11.172937 179.757260 -2.158707 3.065477 14.724761 1.256073 2.021615 -24.342338 1.416270 5.817975 28.545089 2.796042 -5.383282 -10.085538 0.000000 0.000000 0.000000 3.596035 -1.522954 15.606940 -6.722292 2.935445 -25.547148 0.316618 5.799348 32.198366 10.751713 2.525982 -13.851485 0.000000 0.000000 0.000000 4.745507 1.902790 3.899868 0.223925 -2.559639 -6.377177 -0.072288 -2.555609 7.321650 -0.132295 -0.482410 -0.025484 -0.677942 -0.781199 7.694340 -0.984460 2.854467 -3.346222 0.000000 0.000000 0.000000 0.846661 -0.254507 4.987807 -13.692147 -6.832164 2.450051 -52.319136 -22.513179 -4.130384 3.052154 -27.412199 4.697063 0.000000 0.000000 0.000000 -3.474753 1.126677 3.891046 30.073323 2.394683 8.141769 42.057935 16.021160 7.821923 -1.465968 28.745927 -1.819694 0.000000 0.000000 0.000000 
-5.655505 81.241356 18.324677 -178.991500 -12.022385 179.753066 -2.135809 3.006194 14.691320 1.142461 1.792743 -24.621258 1.586638 5.774557 28.855644 2.682733 -5.228557 -9.926332 0.000000 0.000000 0.000000 3.787207 -1.767591 15.433869 -6.770191 1.950763 -25.547373 0.482424 5.633710 32.606381 10.695783 2.474290 -13.627835 0.000000 0.000000 0.000000 4.720999 1.804175 3.678484 0.155722 -2.402054 -6.426537 -0.061024 -2.485930 7.192771 -0.095386 -0.379944 -0.009907 -0.662250 -0.773900 7.602690 -1.030490 2.958521 -3.428712 0.000000 0.000000 0.000000 0.796239 -0.286591 5.010445 -13.230641 -7.448781 2.244891 -51.809638 -24.669730 -3.186137 2.725014 -27.811496 4.393573 0.000000 0.000000 0.000000 -3.483042 1.167016 3.803571 30.109820 2.952395 8.172257 41.747523 17.382603 7.554917 -1.483793 28.544846 -2.011176 0.000000 0.000000 0.000000 
